<?xml version="1.0"?><svg version="1.2" baseProfile="tiny-ps" viewBox="0 0 512 512" xmlns="http://www.w3.org/2000/svg" xmlns:xlink="http://www.w3.org/1999/xlink"><title>Ayush Kumar</title><g><g fill="#fff" transform="matrix(.1 0 0 -.1 0 512)"><path d="M2320 5109c-201-19-426-70-625-140l-119-42-155-78-156-77-105-69c-290-191-552-453-743-743l-69-105-77-156-78-155-42-119c-74-208-120-420-141-640L0 2675v-395h20v-27c0-90 68-382 130-553l40-113v-172l15-69c17-82 40-124 85-153l33-23h85l56-79c180-258 430-499 696-674l105-69 156-77 155-78 119-42c566-201 1164-201 1730 0l119 42 155 78 156 77 105 69c293 192 553 454 746 748l71 110 39 18c58 28 191 119 252 172l52 47v432l-51-49-51-50 6 20c39 133 71 312 87 485l12 125-6 170-6 170-16 100c-8 55-22 132-30 172l-16 71 35 71 36 71v611l-17 7c-10 4-66 6-124 5l-107-1-32-17-32-16-12-30-12-30-53 86c-110 180-284 388-448 537-535 484-1254 725-1963 657z"/></g><g fill="#d1d1d1" transform="matrix(.1 0 0 -.1 0 512)"><path d="M2320 5109c-201-19-426-70-625-140l-119-42-155-78-156-77-105-69c-290-191-552-453-743-743l-69-105-77-156-78-155-42-119C58 3163 0 2846 0 2603v-71l67 33c79 38 194 76 312 104 46 11 85 21 86 23 2 2 29 62 60 133 162 374 333 637 542 836l90 85 71 47c39 26 98 61 131 77l60 31 82 21 83 20 136-5 135-5 60-16c32-9 89-31 125-49l65-32 60-60 60-60 42-85 41-85 18-70 19-70-1-170v-170l-22-102c-38-173-89-333-211-661-65-175-124-339-130-367l-13-50 1-92 1-93 14-35 15-34 25-7c38-9 66 1 137 48l64 43 170 166c94 91 180 171 192 178l22 11 20-21 20-22 7-54 7-55-7-46-6-47-35-72c-64-136-160-250-297-354l-80-59-91-45c-51-24-121-51-157-61l-65-17h-190l-60 19-60 19-46 45-46 45-23 60-23 60-5 116-4 117 16 95c18 107 58 267 109 435l35 112-22 5c-11 2-185 9-386 14l-365 10-6-7c-18-21-57-430-68-723l-8-215-21-45c-12-25-34-57-49-71-32-30-165-98-241-123l-51-17 40-60c172-253 440-514 709-691l105-69 156-77 155-78 119-42c1135-402 2378 25 3029 1041l55 87-63-24-63-24-79-10-79-11-63 9-63 10-44 21-43 21-40 44c-93 100-114 182-183 695-18 139-42 276-55 321l-5 17-43 11-43 11-49 32-48 33-23 34-23 34v88l15 28 14 28 48 23 48 22 80 5 80 5 59-20 59-20 19 21c49 57 160 211 206 289 76 125 162 308 283 598l106 255-50 80c-194 315-465 593-777 798l-105 69-156 77-155 78-119 42c-354 125-743 175-1105 140zm1630-1324c16-8 36-25 44-37l16-22v-114l-20-63c-11-35-29-80-41-99l-22-35-14-80c-19-113-41-196-149-563-193-657-262-981-280-1307l-6-120-18-41-18-42-46-27c-25-15-72-34-103-42l-58-16-106-1-107-1-20 18-20 19-13 51-13 52v330l13 95c57 409 245 1100 415 1524 31 76 56 139 56 140s-51-2-114-6l-114-8-99-25-98-25-60-30c-33-16-85-50-115-75s-72-57-93-72l-38-26-26 19-26 20-14 39-15 40 6 59 6 59 24 53 25 53 47 46 47 46 101 49 101 49 105 31c196 58 476 97 703 99l128 1 29-15zm-2469-340c-120-34-201-87-293-193-95-110-187-284-244-465l-18-57 8-7 7-7 403-4 404-5 16 49c8 27 27 96 41 154l25 105 6 85 6 85-11 60-11 60-23 45-23 45-47 29-47 29-73 3-72 4-54-15zm3551-309c-20-45-139-219-206-302-36-45-110-124-165-176l-100-95-99-66-99-66 33-84c19-46 58-176 89-290 30-113 68-242 85-287l32-80 32-35 33-35h32c17 0 48 7 68 15 40 17 146 101 210 167l42 43 25 100c68 273 91 566 66 840-11 114-44 316-58 355l-8 22-12-26zM135 2301l-110-16-3-23c-9-65 62-377 129-567l43-120 17 139c20 155 57 340 100 494 16 56 29 104 29 107 0 9-94 3-205-14z"/></g><g fill="#a0a0a0" transform="matrix(.1 0 0 -.1 0 512)"><path d="M2320 5109c-201-19-426-70-625-140l-119-42-155-78-156-77-105-69c-290-191-552-453-743-743l-69-105-77-156-78-155-42-119c-74-208-120-420-141-640-11-118-13-245-5-245 3 0 27 11 53 24 69 35 204 81 313 106l96 22 23 56c268 658 631 1080 1015 1177l70 18 110-1h110l80-17 80-16 73-34 74-35 64-64 64-64 40-84c22-45 47-110 56-143l16-60 5-137 6-137-12-83c-30-201-81-372-236-789-57-152-111-305-120-340l-17-64 4-104 4-103 28-25 29-25 31 6 31 6 69 47 68 47 179 173c97 95 182 173 188 173s20-9 30-19l20-20 7-36c3-20 4-67 2-103l-5-67-31-68c-103-225-353-439-604-516l-67-20-73-6-73-7-64 11-65 10-53 27-53 26-28 41c-16 23-36 61-45 84l-17 43-10 88-10 89 11 84c15 124 42 245 94 424 26 88 49 169 52 181l5 21-45 6c-25 4-198 9-386 13l-340 7-5-24c-24-104-52-425-61-699l-6-175-15-53-15-53-37-41-37-41-90-43c-49-23-109-47-132-54l-42-13 41-59c171-253 439-514 708-691l105-69 156-77 155-78 119-42c566-201 1164-201 1730 0l119 42 155 78 156 77 105 69c291 191 554 455 742 742 37 58 66 106 65 108-2 1-28-6-58-16-30-11-86-25-123-32l-69-11-66 6-66 7-52 23-51 24-41 42-40 42-26 53c-33 70-59 185-85 368-11 81-29 213-40 295-12 81-28 176-36 212l-15 65-60 19-60 19-48 43-49 44-10 43-11 43 10 37 10 36 26 21c14 11 48 27 76 35l51 15h151l42-20 42-19 44 52c168 199 284 414 482 895l87 214-12 26c-6 15-40 70-74 122-184 280-449 545-736 733l-105 69-156 77-155 78-119 42c-354 125-743 175-1105 140zm1627-1318l41-19 12-22 12-23-1-62-1-62-20-65c-11-36-29-76-39-89l-19-25-16-89c-22-117-57-248-156-585-183-621-246-909-270-1236-6-82-13-164-16-182l-5-33-39-39-39-39-68-21-68-21-110-6-110-5-27 21-28 22-12 42-12 42v190l-1 190 13 80c77 478 264 1151 426 1539l46 109-109-7-109-6-99-25-98-25-70-34-70-35-60-50c-33-28-75-58-92-68l-33-17-25 24-24 23-12 35-12 35 6 61 6 62 20 46 20 46 37 42 37 41 66 39c210 124 594 204 1046 218l40 2 42-19zm-2437-342l-55-9-73-36-73-36-63-59-63-59-50-72c-28-40-69-110-91-154-42-84-118-291-110-299 2-3 187-8 410-11l405-7 11 34c27 81 62 234 73 313l12 86-11 80-11 80-20 38c-11 22-35 53-55 69l-34 31-52 11c-57 12-72 12-150 0zm3515-330c-45-86-169-257-262-362-80-90-205-199-303-264-47-31-87-58-89-60-2-1 10-39 27-83s59-182 92-307l61-228 39-81 39-80 35-19 34-19 39 12c54 16 114 59 206 144l77 73 25 100c68 278 90 567 65 840-12 123-46 330-59 353l-9 15-17-34zM145 2300c-66-10-121-19-122-19-14-5 16-189 57-352 30-119 96-317 111-333l9-10v38c0 95 65 432 120 621 11 38 20 71 20 72 0 7-86-1-195-17z"/></g><g fill="#707070" transform="matrix(.1 0 0 -.1 0 512)"><path d="M2320 5109c-201-19-426-70-625-140l-119-42-155-78-156-77-105-69c-290-191-552-453-743-743l-69-105-77-156-78-155-42-119c-74-208-120-420-141-640-10-108-14-245-6-245 2 0 41 18 87 39l84 39 95 26c52 14 117 32 144 38l49 13 71 160c206 463 426 761 699 947 75 51 185 103 267 125l65 18 130-2 130-1 77-20c42-12 103-33 135-48l58-27 70-71 71-71 36-75c45-93 68-179 78-295l7-90-8-100c-16-211-71-410-231-835-61-162-120-326-130-365l-19-70 4-95 4-95 12-23 12-23 26-10 25-9 52 23 51 24 65 54c36 29 134 120 217 202l153 149 17-4 18-3 18-35 18-35-3-86-3-86-42-84-42-84-66-82-66-82-79-64c-102-81-209-142-318-180l-87-31h-115l-115-1-60 20-60 19-41 42-41 41-22 57c-11 31-26 89-32 129l-11 72 6 75c11 134 46 290 117 529 22 73 38 135 36 137-6 6-457 24-619 24H852l-6-28c-24-116-56-483-56-646 0-61-4-148-10-194l-9-82-16-34c-9-18-30-48-48-66l-32-33-90-44c-49-24-109-49-132-55l-42-10 40-60c172-253 440-514 709-691l105-69 156-77 155-78 119-42c566-201 1164-201 1730 0l119 42 155 78 156 77 105 69c291 191 554 455 742 742 37 58 67 106 65 107-1 1-36-10-77-24l-75-26h-230l-38 17c-57 25-111 71-147 124l-31 48-24 80c-29 95-48 205-75 426-22 180-55 374-69 411l-9 24-44 13c-23 7-64 26-90 43l-47 30-20 31c-11 18-22 48-26 68l-7 36 16 36 15 37 33 20c47 29 102 42 178 42l67 1 53-18 54-18 24 29c177 213 299 437 487 893l96 235-11 25c-7 15-40 69-74 121-184 280-449 545-736 733l-105 69-156 77-155 78-119 42c-354 125-743 175-1105 140zm1631-1320l41-20 14-36 15-36-6-51c-8-66-41-168-64-198l-17-23-27-135-26-135-105-357c-207-704-265-974-286-1320l-9-148-15-27c-31-60-91-97-194-119l-67-14h-164l-24 11c-12 6-28 19-35 30-19 29-32 142-32 274v121l15 119c52 422 277 1236 445 1611l29 64h-42c-138 0-331-41-441-94l-71-35-79-65c-81-68-94-73-126-56l-18 10-17 45-18 45 5 63 5 62 23 53 23 52 55 51 55 50 69 35c86 43 243 96 363 123 156 34 435 66 613 70l73 1 40-21zm-2411-340l-65-7-57-22-57-21-58-43c-140-103-261-292-342-535-17-52-30-95-29-96 2-2 186-6 409-10l406-7 31 113c17 63 36 141 43 174l12 60v180l-17 57-16 57-26 31c-51 60-120 80-234 69zm3457-379c-162-271-359-471-626-637-1-1 13-44 33-95s56-172 81-268c74-285 107-371 160-420l26-25 39 1 39 1 43 26c24 14 84 62 134 106l91 81 17 63c27 104 44 187 61 297l15 105 7 165 6 165-12 133c-12 135-46 344-59 368l-8 13-47-79zM220 2309c-36-5-95-14-132-20l-68-11v-27c0-38 35-229 60-326 28-110 102-325 112-325h8v44c0 71 45 317 93 504l43 172-25-1c-14-1-55-5-91-10z"/></g><g fill="#3b3b3b" transform="matrix(.1 0 0 -.1 0 512)"><path d="M2320 5109c-201-19-426-70-625-140l-119-42-155-78-156-77-105-69c-290-191-552-453-743-743l-69-105-77-156-78-155-42-119C59 3165 0 2846 0 2608v-67l73 33c90 41 153 62 286 96l104 26 57 129c224 512 462 827 761 1009 93 56 156 81 261 102l83 17 105-6 105-6 78-20 78-21 62-32 62-33 56-57 57-56 41-84 41-83 21-80 21-80 1-145 1-145-17-90c-42-215-92-374-246-782-50-133-98-273-107-310l-16-68 5-88 6-89 16-24 15-24h77l59 39c73 48 198 159 330 296l102 105h39l17-19 18-20 7-62 8-62-9-51c-19-105-126-276-234-377-114-106-262-195-399-241l-70-23h-240l-50 18-51 17-37 31-38 31-25 50-26 50-14 67-14 66v65c0 127 40 324 115 574 25 82 44 151 42 152-4 4-543 24-656 24H850v-7c0-5-4-35-10-68-21-135-41-374-49-600l-9-240-16-46c-9-25-30-62-47-82l-30-36-96-46c-52-25-115-51-138-57l-43-12 40-59c171-252 439-513 708-690l105-69 156-77 155-78 119-42c566-201 1164-201 1730 0l119 42 155 78 156 77 105 69c314 206 598 499 788 815l23 36-73-26-73-26h-120l-120-1-57 28-56 28-36 39c-19 22-47 62-61 90l-25 50-25 103c-13 56-31 158-40 227-36 269-66 467-78 514l-13 49-46 14c-25 7-67 28-94 45l-49 33-23 40-23 40 4 48 4 48 28 29 28 29 45 15c25 9 72 18 106 21l61 6 50-14c28-9 59-18 70-21l20-7 50 63c165 205 266 394 455 850l102 248-40 67c-178 300-470 601-782 806l-105 69-156 77-155 78-119 42c-354 125-743 175-1105 140zm1623-1313c18-7 40-23 51-34l18-21 5-43 5-43-17-70-16-70-28-50-28-50-13-75c-17-105-47-218-155-585-191-649-253-938-274-1277l-9-145-16-31c-8-16-31-43-51-59l-35-29-53-16c-73-23-110-28-207-29l-86-2-23 12-23 13-15 36-16 37-5 175-4 175 16 120c53 407 243 1102 420 1543 25 63 46 116 46 119 0 10-174-8-275-28l-100-20-90-44-90-44-74-61-74-61-25 3-25 3-21 28-21 29v183l27 51 27 51 54 49 53 49 88 43 87 43 122 35c139 40 290 68 457 83 63 6 131 13 150 14 19 2 75 5 123 5l88 2 32-14zm-2467-357c-57-14-165-73-221-123l-50-43-57-79c-71-99-136-229-182-363-20-57-35-105-34-106 2-1 186-5 409-8l406-6 26 97c15 53 33 130 42 170l15 73v185l-15 51c-8 27-25 65-37 84l-23 34-45 23-44 22-76-1c-41-1-92-5-114-10zm3519-376c-27-46-90-136-139-199l-88-114-93-88c-51-48-132-115-181-149s-97-68-106-75l-18-13 34-85 35-85 50-192c72-273 98-344 146-402l29-33 51 4 51 4 47 32c25 18 81 65 124 104l78 72 13 40c20 66 49 203 67 316l15 105 7 165 6 165-12 133c-12 134-46 345-59 367l-7 12-50-84zM250 2310c-30-4-94-13-142-20l-88-12v-27c0-87 60-347 123-529l42-124 6 19c4 10 12 63 18 118 14 124 51 306 95 465l33 120-16-1c-9-1-41-5-71-9z"/></g><g fill="#010101" transform="matrix(.1 0 0 -.1 0 512)"><path d="M2320 5109c-201-19-426-70-625-140l-119-42-155-78-156-77-105-69c-290-191-552-453-743-743l-69-105-77-156-78-155-42-119C59 3165 0 2846 0 2607v-67l50 25c85 43 150 66 284 100l128 33 40 93c229 550 535 936 863 1089l80 38 79 17 79 18 121-6 121-6 70-19c94-25 172-65 233-118l50-44 42-66c53-85 86-172 105-280l15-87v-81c-1-145-40-358-105-566-15-47-79-224-142-395l-115-310-16-75-15-75 10-84 11-85 18-14 19-14 37 5 38 5 67 48 68 48 171 168 172 168h51l15-28c8-16 18-55 21-89l7-60-17-59c-35-119-115-243-227-350-117-112-227-182-369-236l-84-32h-140l-140-1-50 23c-59 27-98 62-130 117l-24 40-15 65-16 65v171l16 95c18 107 69 310 113 449 17 52 29 95 28 96-3 2-637 24-703 24h-61l-16-122c-27-194-37-326-46-573l-8-230-22-51-22-51-32-31-32-31-96-45c-53-25-110-49-128-52-17-4-31-10-31-14s25-43 56-86c181-254 423-485 684-657l105-69 156-77 155-78 119-42c566-201 1164-201 1730 0l119 42 155 78 156 77 105 69c314 206 598 499 788 814l22 37-67-26-68-26-130-1h-130l-49 25-48 25-48 52-49 53-21 57c-31 82-57 199-75 338-56 416-78 549-95 570-5 6-30 16-55 24l-47 14-41 31c-22 17-49 43-60 58l-20 27-5 49-4 49 17 32 16 33 57 26 57 27h190l35-19 34-19 43 48c149 164 280 407 477 884l97 234-40 66c-177 298-469 599-781 804l-105 69-156 77-155 78-119 42c-354 125-743 175-1105 140zm1637-1319c18-10 40-31 49-45l17-26-6-67c-7-83-30-158-60-203l-24-35-12-79c-17-107-45-211-152-574-192-651-256-951-278-1303l-8-136-22-36-23-36-42-25-41-24-65-15c-36-8-101-18-145-22l-80-6-37 15-37 15-18 34-18 33 1 240v240l27 150c76 417 264 1071 403 1404 24 57 43 106 41 108-8 7-229-19-307-38l-85-20-80-39-80-40-70-60-70-60h-52l-15 18c-9 9-21 28-29 42l-13 25 1 65 1 65 22 58 22 59 52 51 52 52 59 32c224 119 604 197 980 202l110 1 32-20zm-2487-355c-30-9-82-31-115-50l-60-33-59-60c-81-82-140-169-196-287-47-99-108-270-99-279 2-2 184-6 404-7l399-3 23 79c13 44 32 123 43 177l20 96v71c0 86-16 164-43 213l-21 38-38 27-39 27-82 3-82 3-55-15zm3536-357c-20-35-67-106-104-158l-67-95-135-135-135-136-96-63-97-63 33-82 33-82 57-214 56-214 31-76 32-75 27-27 27-28h73l32 16c40 21 148 108 205 167l44 44 19 74c88 335 102 718 38 1079-11 63-24 119-28 123l-8 8-37-63zM305 2315c-5-2-72-11-149-20l-139-18 7-59c14-140 74-379 134-543l30-80 6 50c20 159 53 341 92 495 24 96 44 176 44 177 0 4-12 3-25-2z"/></g></g></svg>